# xmcd CD database file
#
# Track frame offsets:
#	150
#	17347
#	34092
#	52852
#	71092
#	89219
#	110065
#	127181
#	145305
#	171417
#	195138
#
# Disc length: 2889 seconds
#
# Revision: 12
# Processed by: cddbd v1.5.2PL0 Copyright (c) Steve Scherf et al.
# Submitted via: CDex 1.76
#
DISCID=9c0b470b
DTITLE=Adele - 21
DYEAR=2011
DGENRE=Soul
TTITLE0=Rolling In The Deep
TTITLE1=Rumour Has It
TTITLE2=Turning Tables
TTITLE3=Don't You Remember
TTITLE4=Set Fire To The Rain
TTITLE5=He Wont Go
TTITLE6=Take It All
TTITLE7=I'll Be Waiting
TTITLE8=One And Only
TTITLE9=Lovesong
TTITLE10=Someone Like You
EXTD=YEAR: 2011
EXTT0=
EXTT1=
EXTT2=
EXTT3=
EXTT4=
EXTT5=
EXTT6=
EXTT7=
EXTT8=
EXTT9=
EXTT10=
PLAYORDER=
